<?xml version="1.0" encoding="utf-8"?>
<!-- Generator: Adobe Illustrator 25.4.1, SVG Export Plug-In . SVG Version: 6.00 Build 0)  -->
<svg version="1.1" id="Layer_1" xmlns="http://www.w3.org/2000/svg" xmlns:xlink="http://www.w3.org/1999/xlink" x="0px" y="0px"
	 viewBox="0 0 158.26 158.26" style="enable-background:new 0 0 158.26 158.26;" xml:space="preserve">
<style type="text/css">
	.st0{fill:#FFFFFF;}
	.st1{fill:url(#SVGID_1_);}
	.st2{fill:#F9A246;}
	.st3{fill:#2086C8;}
	.st4{fill:#F37321;}
</style>
<circle class="st0" cx="79.13" cy="79.13" r="79.13"/>
<g>
	<g>
		
			<radialGradient id="SVGID_1_" cx="-195.9242" cy="-127.3154" r="0" gradientTransform="matrix(1.3299 0 0 0.1408 -2.3298 275.4715)" gradientUnits="userSpaceOnUse">
			<stop  offset="0" style="stop-color:#6E6F71"/>
			<stop  offset="0.099" style="stop-color:#8A898B"/>
			<stop  offset="0.2099" style="stop-color:#A8A6A7"/>
			<stop  offset="0.3288" style="stop-color:#C3C0C1"/>
			<stop  offset="0.4564" style="stop-color:#D9D8D8"/>
			<stop  offset="0.597" style="stop-color:#ECEAEA"/>
			<stop  offset="0.7602" style="stop-color:#F9F8F8"/>
			<stop  offset="1" style="stop-color:#FFFFFF"/>
		</radialGradient>
		<path class="st1" d="M-262.88,257.55"/>
	</g>
</g>
<g>
	<g>
		<g>
			
				<ellipse transform="matrix(0.7071 -0.7071 0.7071 0.7071 -14.6932 119.554)" class="st2" cx="136.97" cy="77.51" rx="3.73" ry="9.09"/>
			<path class="st3" d="M143.11,84.22c-1.46,1.46-5.51-0.24-9.06-3.79c-3.55-3.55-5.25-7.61-3.79-9.06l-38.51,38.51l12.85,12.85
				L143.11,84.22z"/>
			<polygon class="st3" points="91.87,126.81 87.67,122.61 85.83,128.65 			"/>
			<polygon class="st4" points="89.57,116.39 87.8,122.17 92.31,126.68 98.09,124.91 			"/>
			<polygon class="st2" points="98.53,124.78 104.32,123.02 91.46,110.17 89.7,115.95 			"/>
			
				<ellipse transform="matrix(0.7071 -0.7071 0.7071 0.7071 -14.6932 119.554)" class="st3" cx="136.97" cy="77.51" rx="1.21" ry="2.96"/>
		</g>
	</g>
	<path class="st3" d="M74.21,113.66H34.94c-5.11,0-9.26-4.16-9.26-9.26V44.83c0-5.11,4.16-9.26,9.26-9.26h39.28
		c5.11,0,9.26,4.16,9.26,9.26v59.56C83.48,109.5,79.32,113.66,74.21,113.66z M34.94,37.99c-3.78,0-6.85,3.07-6.85,6.85v59.56
		c0,3.78,3.07,6.85,6.85,6.85h39.28c3.78,0,6.85-3.07,6.85-6.85V44.83c0-3.78-3.07-6.85-6.85-6.85H34.94z"/>
	<path class="st3" d="M65.19,47.23H31.73c-0.2,0-0.37-0.16-0.37-0.37l0,0c0-0.2,0.16-0.37,0.37-0.37h33.46
		c0.2,0,0.37,0.16,0.37,0.37l0,0C65.55,47.07,65.39,47.23,65.19,47.23z"/>
	<path class="st3" d="M65.19,56.23H31.73c-0.2,0-0.37-0.16-0.37-0.37l0,0c0-0.2,0.16-0.37,0.37-0.37h33.46
		c0.2,0,0.37,0.16,0.37,0.37l0,0C65.55,56.06,65.39,56.23,65.19,56.23z"/>
	<path class="st3" d="M65.19,65.22H31.73c-0.2,0-0.37-0.16-0.37-0.37l0,0c0-0.2,0.16-0.37,0.37-0.37h33.46
		c0.2,0,0.37,0.16,0.37,0.37l0,0C65.55,65.06,65.39,65.22,65.19,65.22z"/>
	<path class="st3" d="M65.19,74.22H31.73c-0.2,0-0.37-0.16-0.37-0.37l0,0c0-0.2,0.16-0.37,0.37-0.37h33.46
		c0.2,0,0.37,0.16,0.37,0.37l0,0C65.55,74.06,65.39,74.22,65.19,74.22z"/>
	<path class="st3" d="M65.19,83.22H31.73c-0.2,0-0.37-0.16-0.37-0.37v0c0-0.2,0.16-0.37,0.37-0.37h33.46c0.2,0,0.37,0.16,0.37,0.37
		v0C65.55,83.05,65.39,83.22,65.19,83.22z"/>
	<path class="st3" d="M65.19,101.21H31.73c-0.2,0-0.37-0.16-0.37-0.37l0,0c0-0.2,0.16-0.37,0.37-0.37h33.46
		c0.2,0,0.37,0.16,0.37,0.37l0,0C65.55,101.05,65.39,101.21,65.19,101.21z"/>
	<path class="st3" d="M77.55,47.23h-7.06c-0.2,0-0.37-0.16-0.37-0.37l0,0c0-0.2,0.16-0.37,0.37-0.37h7.06c0.2,0,0.37,0.16,0.37,0.37
		l0,0C77.91,47.07,77.75,47.23,77.55,47.23z"/>
	<path class="st3" d="M77.55,56.23h-7.06c-0.2,0-0.37-0.16-0.37-0.37l0,0c0-0.2,0.16-0.37,0.37-0.37h7.06c0.2,0,0.37,0.16,0.37,0.37
		l0,0C77.91,56.06,77.75,56.23,77.55,56.23z"/>
	<path class="st3" d="M77.55,65.22h-7.06c-0.2,0-0.37-0.16-0.37-0.37l0,0c0-0.2,0.16-0.37,0.37-0.37h7.06c0.2,0,0.37,0.16,0.37,0.37
		l0,0C77.91,65.06,77.75,65.22,77.55,65.22z"/>
	<path class="st3" d="M77.55,74.22h-7.06c-0.2,0-0.37-0.16-0.37-0.37l0,0c0-0.2,0.16-0.37,0.37-0.37h7.06c0.2,0,0.37,0.16,0.37,0.37
		l0,0C77.91,74.06,77.75,74.22,77.55,74.22z"/>
	<path class="st3" d="M77.55,83.22h-7.06c-0.2,0-0.37-0.16-0.37-0.37v0c0-0.2,0.16-0.37,0.37-0.37h7.06c0.2,0,0.37,0.16,0.37,0.37v0
		C77.91,83.05,77.75,83.22,77.55,83.22z"/>
	<path class="st3" d="M77.55,101.21h-7.06c-0.2,0-0.37-0.16-0.37-0.37l0,0c0-0.2,0.16-0.37,0.37-0.37h7.06
		c0.2,0,0.37,0.16,0.37,0.37l0,0C77.91,101.05,77.75,101.21,77.55,101.21z"/>
</g>
</svg>
